<svg xmlns="http://www.w3.org/2000/svg" viewBox="0 0 24 24" fill="none" stroke="currentColor" stroke-width="1.2">
  <!-- ハニカムパターン - 7つの六角形 -->
  <!-- 中央 -->
  <path d="M12 5 L15 7 L15 11 L12 13 L9 11 L9 7 Z"/>
  <!-- 上 -->
  <path d="M12 1 L15 3 L15 5 L12 5 L9 5 L9 3 Z" opacity="0.7"/>
  <!-- 左上 -->
  <path d="M6 3 L9 5 L9 7 L6 9 L3 7 L3 5 Z" opacity="0.6"/>
  <!-- 右上 -->
  <path d="M18 3 L21 5 L21 7 L18 9 L15 7 L15 5 Z" opacity="0.6"/>
  <!-- 左下 -->
  <path d="M6 11 L9 11 L9 15 L6 17 L3 15 L3 11 Z" opacity="0.5"/>
  <!-- 右下 -->
  <path d="M18 11 L21 11 L21 15 L18 17 L15 15 L15 11 Z" opacity="0.5"/>
  <!-- 下 -->
  <path d="M12 13 L15 15 L15 19 L12 21 L9 19 L9 15 Z" opacity="0.4"/>
</svg>
